<svg xmlns="http://www.w3.org/2000/svg" xmlns:xlink="http://www.w3.org/1999/xlink" width="152" height="25" viewBox="0 0 152 25">
  <defs>
    <path id="readsmart_logo-b" d="M1.092,26.32 L3.304,26.04 L3.304,9.296 L1.204,8.904 L1.204,7.196 L5.264,7.196 C5.61866844,7.196 6.01066452,7.18666676 6.44,7.168 C6.86933548,7.14933324 7.19599888,7.13066676 7.42,7.112 C8.39067152,7.03733296 9.19333016,7 9.828,7 C11.7506763,7 13.2906609,7.19599804 14.448,7.588 C15.6053391,7.98000196 16.4453307,8.57732932 16.968,9.38 C17.4906693,10.1826707 17.752,11.2373268 17.752,12.544 C17.752,13.8320064 17.4066701,15.0266612 16.716,16.128 C16.0253299,17.2293388 15.0266732,17.9853313 13.72,18.396 C14.4666704,18.7133349 15.1293304,19.2919958 15.708,20.132 C16.2866696,20.9720042 16.9026634,22.0639933 17.556,23.408 C18.022669,24.3226712 18.3819987,24.9806647 18.634,25.382 C18.8860013,25.7833353 19.1333321,26.0119997 19.376,26.068 L20.3,26.348 L20.3,28 L15.54,28 C15.2413318,28 14.9286683,27.6966697 14.602,27.09 C14.2753317,26.4833303 13.8506693,25.5266732 13.328,24.22 C12.7119969,22.6893257 12.1800022,21.494671 11.732,20.636 C11.2839978,19.777329 10.8080025,19.2453344 10.304,19.04 L7.42,19.04 L7.42,26.04 L9.996,26.32 L9.996,28 L1.092,28 L1.092,26.32 Z M9.996,17.332 C11.0600053,17.332 11.8906637,16.9493372 12.488,16.184 C13.0853363,15.4186628 13.384,14.2706743 13.384,12.74 C13.384,11.3773265 13.0900029,10.3693366 12.502,9.716 C11.9139971,9.0626634 10.9013405,8.736 9.464,8.736 C8.94133072,8.736 8.49800182,8.7593331 8.134,8.806 C7.76999818,8.8526669 7.53200056,8.876 7.42,8.876 L7.42,17.276 C7.64400112,17.3133335 8.18532904,17.332 9.044,17.332 L9.996,17.332 Z M28.504,28.308 C26.0399877,28.308 24.206006,27.5846739 23.002,26.138 C21.797994,24.6913261 21.196,22.7173458 21.196,20.216 C21.196,18.5359916 21.5086635,17.0800062 22.134,15.848 C22.7593365,14.6159938 23.6413276,13.6733366 24.78,13.02 C25.9186724,12.3666634 27.2346592,12.04 28.728,12.04 C30.594676,12.04 32.031995,12.5299951 33.04,13.51 C34.048005,14.4900049 34.5706665,15.8853243 34.608,17.696 C34.608,18.9280062 34.5333341,19.8426637 34.384,20.44 L25.284,20.44 C25.358667,22.1386752 25.7599964,23.4593286 26.488,24.402 C27.2160036,25.3446714 28.2519933,25.816 29.596,25.816 C30.3240036,25.816 31.0753295,25.6946679 31.85,25.452 C32.6246705,25.2093321 33.2359978,24.9200017 33.684,24.584 L34.384,26.124 C33.8799975,26.665336 33.063339,27.1646644 31.934,27.622 C30.804661,28.0793356 29.6613391,28.308 28.504,28.308 Z M30.688,18.76 C30.7253335,18.2373307 30.744,17.8360014 30.744,17.556 C30.744,15.0733209 29.9133416,13.832 28.252,13.832 C27.3373288,13.832 26.6280025,14.1959964 26.124,14.924 C25.6199975,15.6520036 25.3400003,16.9306575 25.284,18.76 L30.688,18.76 Z M36.54,23.632 C36.54,21.9333248 37.3939915,20.654671 39.102,19.796 C40.8100085,18.937329 43.0173198,18.4986668 45.724,18.48 L45.724,17.836 C45.724,17.0706628 45.6446675,16.4733355 45.486,16.044 C45.3273325,15.6146645 45.0380021,15.2926677 44.618,15.078 C44.1979979,14.8633323 43.5866707,14.756 42.784,14.756 C41.8693288,14.756 41.0480036,14.8726655 40.32,15.106 C39.5919964,15.3393345 38.8360039,15.6426648 38.052,16.016 L37.184,14.224 C37.4640014,13.9813321 37.93533,13.6920017 38.598,13.356 C39.26067,13.0199983 40.0493288,12.7260013 40.964,12.474 C41.8786712,12.2219987 42.8213285,12.096 43.792,12.096 C45.2293405,12.096 46.3539959,12.2826648 47.166,12.656 C47.9780041,13.0293352 48.5613316,13.6266626 48.916,14.448 C49.2706684,15.2693374 49.448,16.3706598 49.448,17.752 L49.448,26.32 L50.96,26.32 L50.96,27.888 C50.5866648,27.9813338 50.0546701,28.0746662 49.364,28.168 C48.6733299,28.2613338 48.0666693,28.308 47.544,28.308 C46.9093302,28.308 46.4846677,28.2146676 46.27,28.028 C46.0553323,27.8413324 45.948,27.4586696 45.948,26.88 L45.948,26.124 C45.4439975,26.6840028 44.7906707,27.1879978 43.988,27.636 C43.1853293,28.0840022 42.280005,28.308 41.272,28.308 C40.413329,28.308 39.6246703,28.1260018 38.906,27.762 C38.1873297,27.3979982 37.6133355,26.8660035 37.184,26.166 C36.7546645,25.4659965 36.54,24.6213383 36.54,23.632 Z M43.064,25.984 C43.456002,25.984 43.9039975,25.8673345 44.408,25.634 C44.9120025,25.4006655 45.3506648,25.1160017 45.724,24.78 L45.724,20.188 C44.0439916,20.188 42.7886708,20.4726638 41.958,21.042 C41.1273292,21.6113362 40.712,22.3439955 40.712,23.24 C40.712,24.1360045 40.9219979,24.817331 41.342,25.284 C41.7620021,25.750669 42.3359964,25.984 43.064,25.984 Z M58.548,28.308 C57.3906609,28.308 56.3546712,28.0326694 55.44,27.482 C54.5253288,26.9313306 53.797336,26.0773391 53.256,24.92 C52.714664,23.7626609 52.444,22.3160087 52.444,20.58 C52.444,19.0119922 52.7659968,17.5793398 53.41,16.282 C54.0540032,14.9846602 55.0013271,13.9533372 56.252,13.188 C57.5026729,12.4226628 59.0053246,12.04 60.76,12.04 C61.4693369,12.04 62.1413302,12.1146659 62.776,12.264 L62.776,7.532 L60.032,7.14 L60.032,5.6 L65.8,5.04 L65.884,5.04 L66.668,5.628 L66.668,26.292 L68.18,26.292 L68.18,27.888 C66.8359933,28.1680014 65.7253377,28.308 64.848,28.308 C64.2506637,28.308 63.8260013,28.210001 63.574,28.014 C63.3219987,27.817999 63.196,27.4306696 63.196,26.852 L63.196,26.068 C62.7106642,26.7213366 62.0480042,27.2579979 61.208,27.678 C60.3679958,28.0980021 59.481338,28.308 58.548,28.308 Z M60.004,25.984 C60.6200031,25.984 61.1659976,25.8580013 61.642,25.606 C62.1180024,25.3539987 62.4959986,25.0506684 62.776,24.696 L62.776,14.504 C62.6453327,14.3173324 62.3700021,14.1586673 61.95,14.028 C61.5299979,13.8973327 61.0773358,13.832 60.592,13.832 C59.3973274,13.832 58.4406703,14.3499948 57.722,15.386 C57.0033297,16.4220052 56.644,18.0786553 56.644,20.356 C56.644,22.2600095 56.9519969,23.6739954 57.568,24.598 C58.1840031,25.5220046 58.995995,25.984 60.004,25.984 Z M73.332,25.704 C73.4813341,25.9280011 73.8219973,26.137999 74.354,26.334 C74.8860027,26.530001 75.422664,26.628 75.964,26.628 C76.8413377,26.628 77.4993311,26.4460018 77.938,26.082 C78.3766689,25.7179982 78.596,25.2373363 78.596,24.64 C78.596,24.0239969 78.325336,23.5246686 77.784,23.142 C77.242664,22.7593314 76.3280064,22.2880028 75.04,21.728 L74.256,21.392 C72.9679936,20.850664 72.0066698,20.1973372 71.372,19.432 C70.7373302,18.6666628 70.42,17.6773394 70.42,16.464 C70.42,15.6239958 70.6719975,14.87267 71.176,14.21 C71.6800025,13.54733 72.3893288,13.0293352 73.304,12.656 C74.2186712,12.2826648 75.2733274,12.096 76.468,12.096 C77.3453377,12.096 78.0966635,12.1519994 78.722,12.264 C79.3473365,12.3760006 80.0053299,12.5253324 80.696,12.712 C81.0693352,12.8426673 81.3493324,12.9173332 81.536,12.936 L81.536,16.604 L79.324,16.604 L78.68,14.476 C78.5679994,14.2893324 78.316002,14.1213341 77.924,13.972 C77.531998,13.8226659 77.0840025,13.748 76.58,13.748 C75.8146628,13.748 75.2033356,13.9113317 74.746,14.238 C74.2886644,14.5646683 74.06,15.0173304 74.06,15.596 C74.06,16.1186693 74.2186651,16.5526649 74.536,16.898 C74.8533349,17.2433351 75.1986648,17.5093324 75.572,17.696 C75.9453352,17.8826676 76.635995,18.1906645 77.644,18.62 C78.652005,19.0493355 79.48733,19.459998 80.15,19.852 C80.81267,20.244002 81.3633311,20.7526635 81.802,21.378 C82.2406689,22.0033365 82.46,22.7639955 82.46,23.66 C82.46,25.0413402 81.9186721,26.161329 80.836,27.02 C79.7533279,27.878671 78.1946768,28.308 76.16,28.308 C75.2079952,28.308 74.3540038,28.2240008 73.598,28.056 C72.8419962,27.8879992 71.9693383,27.6640014 70.98,27.384 L70.364,27.188 L70.364,23.492 L72.688,23.492 L73.332,25.704 Z M84.756,26.32 L86.324,26.068 L86.324,15.092 L84.532,14.588 L84.532,12.656 L89.18,12.068 L89.516,12.292 L89.936,13.216 L89.936,14.392 C90.5520031,13.7946637 91.4339943,13.2673356 92.582,12.81 C93.7300057,12.3526644 94.7239958,12.124 95.564,12.124 C96.572005,12.124 97.3886635,12.2919983 98.014,12.628 C98.6393365,12.9640017 99.1106651,13.4866631 99.428,14.196 C100.044003,13.6359972 100.855995,13.1506687 101.864,12.74 C102.872005,12.3293313 103.861328,12.124 104.832,12.124 C106.493342,12.124 107.66933,12.6093285 108.36,13.58 C109.05067,14.5506715 109.396,16.1373223 109.396,18.34 L109.396,26.068 L111.216,26.32 L111.216,28 L103.964,28 L103.964,26.32 L105.42,26.068 L105.42,18.452 C105.42,16.9959927 105.247335,15.9740029 104.902,15.386 C104.556665,14.7979971 103.898672,14.504 102.928,14.504 C102.405331,14.504 101.868669,14.6206655 101.318,14.854 C100.767331,15.0873345 100.277335,15.3719983 99.848,15.708 C99.9786673,16.4173369 100.044,17.3039947 100.044,18.368 L100.044,26.068 L101.78,26.32 L101.78,28 L94.472,28 L94.472,26.32 L96.012,26.068 L96.012,18.368 C96.012,17.3973285 95.9513339,16.6366694 95.83,16.086 C95.7086661,15.5353306 95.4800017,15.1340013 95.144,14.882 C94.8079983,14.6299987 94.3226698,14.504 93.688,14.504 C93.0906637,14.504 92.4980029,14.639332 91.91,14.91 C91.3219971,15.180668 90.794669,15.5026648 90.328,15.876 L90.328,26.068 L91.98,26.32 L91.98,28 L84.756,28 L84.756,26.32 Z M112.812,23.632 C112.812,21.9333248 113.665991,20.654671 115.374,19.796 C117.082009,18.937329 119.28932,18.4986668 121.996,18.48 L121.996,17.836 C121.996,17.0706628 121.916667,16.4733355 121.758,16.044 C121.599333,15.6146645 121.310002,15.2926677 120.89,15.078 C120.469998,14.8633323 119.858671,14.756 119.056,14.756 C118.141329,14.756 117.320004,14.8726655 116.592,15.106 C115.863996,15.3393345 115.108004,15.6426648 114.324,16.016 L113.456,14.224 C113.736001,13.9813321 114.20733,13.6920017 114.87,13.356 C115.53267,13.0199983 116.321329,12.7260013 117.236,12.474 C118.150671,12.2219987 119.093328,12.096 120.064,12.096 C121.501341,12.096 122.625996,12.2826648 123.438,12.656 C124.250004,13.0293352 124.833332,13.6266626 125.188,14.448 C125.542668,15.2693374 125.72,16.3706598 125.72,17.752 L125.72,26.32 L127.232,26.32 L127.232,27.888 C126.858665,27.9813338 126.32667,28.0746662 125.636,28.168 C124.94533,28.2613338 124.338669,28.308 123.816,28.308 C123.18133,28.308 122.756668,28.2146676 122.542,28.028 C122.327332,27.8413324 122.22,27.4586696 122.22,26.88 L122.22,26.124 C121.715997,26.6840028 121.062671,27.1879978 120.26,27.636 C119.457329,28.0840022 118.552005,28.308 117.544,28.308 C116.685329,28.308 115.89667,28.1260018 115.178,27.762 C114.45933,27.3979982 113.885335,26.8660035 113.456,26.166 C113.026665,25.4659965 112.812,24.6213383 112.812,23.632 Z M119.336,25.984 C119.728002,25.984 120.175997,25.8673345 120.68,25.634 C121.184003,25.4006655 121.622665,25.1160017 121.996,24.78 L121.996,20.188 C120.315992,20.188 119.060671,20.4726638 118.23,21.042 C117.399329,21.6113362 116.984,22.3439955 116.984,23.24 C116.984,24.1360045 117.193998,24.817331 117.614,25.284 C118.034002,25.750669 118.607996,25.984 119.336,25.984 Z M128.968,26.348 L130.816,26.124 L130.816,15.092 L129.024,14.588 L129.024,12.656 L133.364,12.068 L133.448,12.068 L134.148,12.628 L134.148,13.244 L134.064,15.512 L134.148,15.512 C134.278667,15.1386648 134.586664,14.6766694 135.072,14.126 C135.557336,13.5753306 136.168663,13.0900021 136.906,12.67 C137.643337,12.2499979 138.441329,12.04 139.3,12.04 C139.710669,12.04 140.065332,12.0959994 140.364,12.208 L140.364,16.408 C139.803997,16.015998 139.122671,15.82 138.32,15.82 C136.957327,15.82 135.772005,16.1839964 134.764,16.912 L134.764,26.096 L138.012,26.348 L138.012,28 L128.968,28 L128.968,26.348 Z M146.86,28.252 C145.683994,28.252 144.816003,27.981336 144.256,27.44 C143.695997,26.898664 143.416,26.0400059 143.416,24.864 L143.416,14.588 L141.596,14.588 L141.596,13.132 C141.745334,13.0759997 142.015998,12.9780007 142.408,12.838 C142.800002,12.6979993 143.098666,12.5813338 143.304,12.488 C143.621335,12.2453321 143.891999,11.8253363 144.116,11.228 C144.284001,10.835998 144.591998,9.86534108 145.04,8.316 L147.28,8.316 L147.392,12.432 L151.676,12.432 L151.676,14.588 L147.42,14.588 L147.42,22.456 C147.42,23.5013386 147.448,24.2386645 147.504,24.668 C147.56,25.0973355 147.681332,25.3726661 147.868,25.494 C148.054668,25.6153339 148.381331,25.676 148.848,25.676 C149.314669,25.676 149.799997,25.6246672 150.304,25.522 C150.808003,25.4193328 151.227998,25.2933341 151.564,25.144 L152.096,26.712 C151.573331,27.104002 150.808005,27.4586651 149.8,27.776 C148.791995,28.0933349 147.812005,28.252 146.86,28.252 Z"/>
    <filter id="readsmart_logo-a" width="101.3%" height="108.6%" x="-.3%" y="-2.1%" filterUnits="objectBoundingBox">
      <feOffset dx="1" dy="1" in="SourceAlpha" result="shadowOffsetOuter1"/>
      <feColorMatrix in="shadowOffsetOuter1" values="0 0 0 0 0   0 0 0 0 0   0 0 0 0 0  0 0 0 0.1 0"/>
    </filter>
  </defs>
  <g fill="none" transform="translate(-1 -5)">
    <use fill="#000" filter="url(#readsmart_logo-a)" xlink:href="#readsmart_logo-b"/>
    <use fill="#000" xlink:href="#readsmart_logo-b"/>
    <use fill="#FC6D55" xlink:href="#readsmart_logo-b"/>
  </g>
</svg>
