<?xml version="1.0" encoding="utf-8"?>
<!-- Generator: Adobe Illustrator 21.0.0, SVG Export Plug-In . SVG Version: 6.00 Build 0)  -->
<svg version="1.1" id="Layer_1" xmlns="http://www.w3.org/2000/svg" xmlns:xlink="http://www.w3.org/1999/xlink" x="0px" y="0px"
	 width="2000px" height="2000px" viewBox="0 0 2000 2000" style="enable-background:new 0 0 2000 2000;" xml:space="preserve">
<style type="text/css">
	.st0{fill:#FFFFFF;}
	.st1{fill:#A5F2F2;}
	.st2{fill:#8DDBD9;}
	.st3{fill:#FFFDFD;}
	.st4{fill:#EFA3B0;}
	.st5{fill:#FEE9E6;}
	.st6{fill:#7F5352;}
	.st7{fill:#EF7545;}
	.st8{fill:#F99E82;}
	.st9{fill:url(#SVGID_1_);}
	.st10{fill:#208BA8;}
	.st11{fill:#19788E;}
	.st12{fill:#F7F7F7;}
	.st13{fill:url(#SVGID_2_);}
	.st14{fill:#43C1D6;}
	.st15{fill:url(#SVGID_3_);}
	.st16{fill:url(#SVGID_4_);}
	.st17{fill:url(#SVGID_5_);}
	.st18{fill:url(#SVGID_6_);}
	.st19{fill:#271647;}
	.st20{fill:url(#SVGID_7_);}
	.st21{fill:url(#SVGID_8_);}
	.st22{fill:url(#SVGID_9_);}
	.st23{fill:#F8C7CD;}
	.st24{fill:url(#SVGID_10_);}
	.st25{fill:url(#SVGID_11_);}
	.st26{fill:url(#SVGID_12_);}
	.st27{fill:url(#SVGID_13_);}
	.st28{fill:url(#SVGID_14_);}
	.st29{fill:url(#SVGID_15_);}
	.st30{fill:#66D3D3;}
	.st31{fill:url(#SVGID_16_);}
	.st32{fill:url(#SVGID_17_);}
	.st33{fill:url(#SVGID_18_);}
	.st34{fill:#2F254C;}
	.st35{fill:url(#SVGID_19_);}
	.st36{fill:url(#SVGID_20_);}
	.st37{fill:url(#SVGID_21_);}
	.st38{fill:#DDB6B1;}
	.st39{fill:url(#SVGID_22_);}
	.st40{fill:url(#SVGID_23_);}
	.st41{fill:#379DB5;}
	.st42{fill:#50BACC;}
	.st43{fill:#4C4275;}
	.st44{fill:#6A64B5;}
	.st45{fill:url(#SVGID_24_);}
	.st46{fill:#534E93;}
	.st47{fill:url(#SVGID_25_);}
	.st48{fill:url(#SVGID_26_);}
</style>
<rect class="st0" width="2000" height="2000"/>
<g>
	<path class="st1" d="M1882,774.8c28.8-103.1,52.2-209.6,44.3-317.2c-6.9-93.8-34.6-187.2-94.1-261.4
		c-65-81.2-164.3-120.8-266.4-126.5c-114.9-6.4-226,29.2-332,69.8c-110.6,42.4-222.1,92.3-341.4,103c-59.2,5.3-116.7-1-173.7-17.2
		c-56.3-16-110.4-38.6-165.9-56.8c-106.8-35-230-50.8-327.6,17.3C145.5,241.3,95.8,333.9,79.7,428.4c-21.2,124.2,6.3,249.2,34.4,370
		c27.3,117.4,56.7,239.6,35.9,360.5c-19.6,114-72.2,220.9-75.6,337.9c-3.2,107.8,34.4,218.4,110.9,295.7
		c75.5,76.4,181.7,114.9,288.4,100.9c59.2-7.7,115.5-27.2,172.1-45.4c27.6-8.9,55.4-17.8,83.9-23.1c25.9-4.8,52.5-6.3,78.8-5.4
		c12.9,0.4,25.8,1.6,38.7,3.3c100.8,34.2,204.1,60.5,309,78.5c60.8,10.4,122.1,18.2,183.5,23.3c59.1,4.8,118.8,8.2,178,5.2
		c106.4-5.4,218.8-36.9,287.4-124.1c33.8-43,52.2-93.5,52.5-148.4c0.3-61.3-18.8-120.6-34.4-179.2c-31.2-117-39.7-238.6-25.8-358.9
		C1811.1,1001.4,1850.2,888.6,1882,774.8z"/>
	<g>
		<rect x="442.3" y="402.8" class="st2" width="444.4" height="486"/>
		<rect x="441.7" y="395.4" class="st3" width="444.4" height="486"/>
		<rect x="459.7" y="415" class="st4" width="408.5" height="446.7"/>
		<g>
			<path class="st5" d="M727.4,604.1c24.1,19.7,54.5,41.5,87.2,29.9c13.5-4.8,24.1-15.5,27.8-29.4c3.6-13.6-0.8-27-11.4-36
				c-10.1-8.5-23.5-12.9-32.4-22.8c-10.9-12.1-7.6-30.2-12.8-44.6c-4.7-12.9-16.4-22.9-30-25.4c-14.6-2.6-27.7,4.1-36.3,15.7
				c-24,32.1-9.5,76.2,5.2,109c0,0.7,0.3,1.4,1,2.1C726.1,603.4,726.7,603.9,727.4,604.1z"/>
			<path class="st5" d="M511.8,837.2c-1,8.2-1.8,16.4-2.2,24.6h343.5c-0.1-1.5-0.3-3-0.5-4.4c-1.5-11.2-3.9-22.3-6.7-33.2
				c-11-43.8-30.9-86-67.4-114.1c-35.6-27.5-79.6-40.7-116.1-66.6c-17.9-12.7-35.2-29.6-40.7-51.6c-3.3-13.2-1.8-27.1-0.1-40.4
				c1.6-12.6,3.1-25.2,2.3-37.9c-1.4-22.5-9.5-45-27.8-59.2c-16.9-13-38.7-14.7-57.3-4.5c-19.5,10.7-31.1,30.7-34,52.4
				c-3.2,24.4,3.6,48.4,13.7,70.3C523.8,584,529.9,595,536,606c0.2,0.4,0.5,0.8,0.8,1c4.3,51.1,0.1,101.9-10.3,152.2
				C521.2,785.2,515.1,810.9,511.8,837.2z"/>
		</g>
	</g>
	<path class="st6" d="M1805.1,1805.8c33.8-43,52.2-93.5,52.5-148.4c0.3-61.3-18.8-120.6-34.4-179.2c-5.8-21.8-10.9-43.8-15.1-66
		H84.6c-5.5,27.7-9.4,55.8-10.2,84.5c-3.2,107.8,34.4,218.4,110.9,295.7c75.5,76.4,181.7,114.9,288.4,100.9
		c59.2-7.7,115.5-27.2,172.1-45.4c27.6-8.9,55.4-17.8,83.9-23.1c25.9-4.8,52.5-6.3,78.8-5.4c12.9,0.4,25.8,1.6,38.7,3.3
		c100.8,34.2,204.1,60.5,309,78.5c60.8,10.4,122.1,18.2,183.5,23.3c59.1,4.8,118.8,8.2,178,5.2
		C1624.1,1924.5,1736.5,1892.9,1805.1,1805.8z"/>
	<g>
		<path class="st7" d="M1426.7,1462.8c-7.7-6.9-17.8-10.7-28.1-10.7H999.1H599.6c-10.4,0-20.4,3.8-28.1,10.7l-205,183.1
			c-10.1,9-3.7,25.7,9.8,25.7h622.8h622.8c13.5,0,19.9-16.7,9.8-25.7L1426.7,1462.8z"/>
		<path class="st8" d="M1591,1671.6c-3.7-41.5-37.3-71.3-73.4-87.7c-41.6-18.9-87.7-26.8-133.1-28.7
			c-98.8-4.1-195.3,21.6-293.1,30.9c-39.6,3.8-80.9,5.3-119.3-6.8c-18-5.7-35.1-14.6-48.9-27.7c-15.5-14.7-25.4-33.7-38.7-50.2
			c-22-27.4-55.9-40.2-89.5-49.3H599.6c-10.4,0-20.4,3.8-28.1,10.7l-101.7,90.9c22.8,2.5,45.8,1.5,68.7-0.4
			c43.5-3.8,87.4-11,130.8-3.1c18.5,3.4,36.7,9.3,52.7,19.2c16.9,10.5,28.8,25.1,39.2,41.8c10.4,16.7,20.6,33.9,37.4,45
			c15.9,10.5,35.2,13.9,54,13.7c20.3-0.2,40.3-4,60.3-7.2c22.9-3.7,45.8-5.7,69.1-4.9c30.9,1.1,61.4,6.3,91.3,13.8H1591z"/>
	</g>
	<g>
		<g>
			<g>
				<linearGradient id="SVGID_1_" gradientUnits="userSpaceOnUse" x1="999.0623" y1="939.6848" x2="999.0623" y2="1205.0413">
					<stop  offset="0" style="stop-color:#379DB5"/>
					<stop  offset="1" style="stop-color:#208BA8"/>
				</linearGradient>
				<path class="st9" d="M1281.2,1206H716.9V945.1c0-29.8,24.2-54,54-54h456.2c29.8,0,54,24.2,54,54V1206z"/>
				<g>
					<circle class="st10" cx="856.6" cy="979.7" r="17.3"/>
					<circle class="st10" cx="999.1" cy="979.7" r="17.3"/>
					<circle class="st10" cx="1141.5" cy="979.7" r="17.3"/>
					<circle class="st11" cx="1141.5" cy="1117.3" r="17.3"/>
					<circle class="st11" cx="999.1" cy="1117.3" r="17.3"/>
					<circle class="st11" cx="856.6" cy="1117.3" r="17.3"/>
					<g>
						<circle class="st12" cx="856.6" cy="979.7" r="7.8"/>
						<circle class="st12" cx="999.1" cy="979.7" r="7.8"/>
						<circle class="st12" cx="1141.5" cy="979.7" r="7.8"/>
						<circle class="st12" cx="856.6" cy="1117.3" r="7.8"/>
						<circle class="st12" cx="999.1" cy="1117.3" r="7.8"/>
						<circle class="st12" cx="1141.5" cy="1117.3" r="7.8"/>
					</g>
				</g>
			</g>
			<linearGradient id="SVGID_2_" gradientUnits="userSpaceOnUse" x1="994.7164" y1="1456.6962" x2="994.7164" y2="1375.0443">
				<stop  offset="0" style="stop-color:#379DB5"/>
				<stop  offset="1" style="stop-color:#208BA8"/>
			</linearGradient>
			<rect x="716.9" y="1252.3" class="st13" width="555.6" height="221.6"/>
			<path class="st14" d="M1290.5,1253.7H697.7v-31.9c0-13.4,10.9-24.3,24.3-24.3h544.2c13.4,0,24.3,10.9,24.3,24.3V1253.7z"/>
			<rect x="781.9" y="1473.9" class="st6" width="26.7" height="51.1"/>
			<rect x="656.5" y="1149.9" class="st6" width="26.7" height="375"/>
			<rect x="1167.5" y="1473.9" class="st6" width="26.7" height="51.1"/>
			<rect x="1316.8" y="1473.9" class="st6" width="26.7" height="51.1"/>
			<linearGradient id="SVGID_3_" gradientUnits="userSpaceOnUse" x1="994.7164" y1="1311.1023" x2="994.7164" y2="1102.3245">
				<stop  offset="0" style="stop-color:#379DB5"/>
				<stop  offset="1" style="stop-color:#208BA8"/>
			</linearGradient>
			<path class="st15" d="M1272.3,1326.3H717.1c-10,0-18.2-8.1-18.2-18.2v-69.4c0-10,8.1-18.2,18.2-18.2h555.2
				c10,0,18.2,8.1,18.2,18.2v69.4C1290.5,1318.1,1282.3,1326.3,1272.3,1326.3z"/>
			<linearGradient id="SVGID_4_" gradientUnits="userSpaceOnUse" x1="1330.1586" y1="1172.9712" x2="1330.1586" y2="1366.4117">
				<stop  offset="0" style="stop-color:#379DB5"/>
				<stop  offset="1" style="stop-color:#208BA8"/>
			</linearGradient>
			<path class="st16" d="M1387.8,1473.9h-115.3v-393c0-11.7,9.4-21.1,21.1-21.1h73.1c11.7,0,21.1,9.4,21.1,21.1V1473.9z"/>
			<linearGradient id="SVGID_5_" gradientUnits="userSpaceOnUse" x1="669.8414" y1="1205.241" x2="669.8414" y2="1427.2306">
				<stop  offset="0" style="stop-color:#379DB5"/>
				<stop  offset="1" style="stop-color:#208BA8"/>
			</linearGradient>
			<path class="st17" d="M727.5,1473.9H612.2v-393c0-11.7,9.4-21.1,21.1-21.1h73.1c11.7,0,21.1,9.4,21.1,21.1V1473.9z"/>
		</g>
		<linearGradient id="SVGID_6_" gradientUnits="userSpaceOnUse" x1="944.1601" y1="1190.3761" x2="1223.8389" y2="1190.3761">
			<stop  offset="0" style="stop-color:#FDA3A2"/>
			<stop  offset="1" style="stop-color:#E05865"/>
		</linearGradient>
		<path class="st18" d="M944.2,1071c0,0,202.8-51.7,229.8-48.6c27,3.1,65.2,13.2,43.5,50.9c-21.7,37.7-109.4,98.7-124.1,158.4
			c-8.1,33.2-14,95.4-8.9,109.1c5.8,15.4-9.3,26.6-22.4,7.3c-14.5-21.4-12.7-59-31.2-84.4c-10.9-15-26.3-40.6,12-58.6
			c57-26.9,69.4-112.6,69.4-112.6l-159.6,20L944.2,1071z"/>
		<path class="st3" d="M1158.4,1138.6c1.6-7.3,2.5-11.5,2.5-11.5l-59.2,4.7c-9.7,26.3-27.6,58.7-58.8,73.4
			c-38.2,18-22.9,43.6-12,58.6c18.5,25.4,16.7,63,31.2,84.4c13.1,19.3,28.1,8.1,22.4-7.3c-5.1-13.7,0.7-76,8.9-109.1
			C1101.2,1199.8,1130,1167.5,1158.4,1138.6z"/>
		<path class="st19" d="M896,674.3l-41.4,54c0,0-16.5,33.9-16.5,35.1c0,1.2-19.7,30.9-19.7,30.9l2.3,34.7L810,847l6.9,27.8l103.3,12
			l65.9-15.4l20.8-33.2l3.5-40.5l-3.5-31.6l-16.1-85.6l-56-29.3L896,674.3z"/>
		<linearGradient id="SVGID_7_" gradientUnits="userSpaceOnUse" x1="1120.6936" y1="968.4217" x2="1077.6212" y2="1064.5768">
			<stop  offset="0" style="stop-color:#9E6E6E"/>
			<stop  offset="1" style="stop-color:#7F5352"/>
		</linearGradient>
		<path class="st20" d="M1197.8,996.2c-27-3.1-272.7,66.3-272.7,66.3l27.5,50.2l159.6-20c0,0-4.2,30.7-16.9,60.1
			c18.2,0.4,61.8-3,71.6-2.8c30.8-48.8,52.3-66.8,65.8-90.1C1254.4,1022.1,1224.8,999.3,1197.8,996.2z"/>
		<linearGradient id="SVGID_8_" gradientUnits="userSpaceOnUse" x1="977.3367" y1="897.327" x2="1006.3528" y2="945.8074">
			<stop  offset="0" style="stop-color:#F8C7CD"/>
			<stop  offset="1" style="stop-color:#EFA3B0"/>
		</linearGradient>
		<path class="st21" d="M968.3,851.3c0,0,20.5,1.5,38.7,22.4c18.2,20.8,72.2,84.7,72.2,84.7l-30.5,30.2l-94.4-20.8L968.3,851.3z"/>
		<linearGradient id="SVGID_9_" gradientUnits="userSpaceOnUse" x1="786.248" y1="1106.1981" x2="1256.2697" y2="1106.1981">
			<stop  offset="0" style="stop-color:#FDA3A2"/>
			<stop  offset="1" style="stop-color:#E05865"/>
		</linearGradient>
		<path class="st22" d="M886.1,726.3c0,0-8.1,82.1-16.8,92.5c-8.7,10.4-81,34.1-81,34.1s-6.2,97.8,2.5,134.3s20.7,65.8,24.7,90.7
			s-7.9,62.5,14.8,105.3c22.8,42.8,91,51.5,123.4,41.1c32.4-10.4,219.8-71.7,222.7-64.2c2.9,7.5-20.2,28.9-32.4,86.7
			c-12.1,57.8-11.6,127.8-16.8,160.2c-5.2,32.4-28.3,58.4-20.2,71.1c8.1,12.7,148.6,8.1,146.3,0c-2.3-8.1-34.1-16.2-58.4-24.9
			c-24.3-8.7-35.9-17.9-33.5-49.7s94.3-233.1,94.8-279.3c0.6-46.3-22-46.3-61.3-46.3c-39.3,0-218.6,14.5-230.2,10.4
			c-11.6-4-23.1-41.1-13.9-83.3c9.3-42.2,22-41.6,18.5-87.3s-1.2-66.5-1.2-66.5s-43.4-8.1-44.5-28.9c-1.2-20.8,7.5-41.6,7.5-41.6
			L886.1,726.3z"/>
		<path class="st23" d="M931.6,808.3c-4.7-1.3-9.7-0.7-14.5-1.4c-4.9-0.7-9.5-2.5-14-4.3c-8.9-3.6-17.8-7.7-27.8-8.4
			c-8-0.5-17.5,2.2-20,9.3c-1.5,4.2,0,9.1,0.6,13.4c0.8,6.1,1.7,12.2,2.5,18.3c0.9,6.2,10.9,7.2,13.2,2.8c5.9,2.3,12.6,3.8,18.3,4.8
			c9.9,1.9,20.5,2.3,30.3-0.6c8.8-2.6,17.7-8,21-15.7C944.2,819.2,941.1,810.9,931.6,808.3z"/>
		
			<linearGradient id="SVGID_10_" gradientUnits="userSpaceOnUse" x1="506.2256" y1="1013.457" x2="621.5249" y2="1013.457" gradientTransform="matrix(1.0292 -8.314469e-02 6.472610e-02 1 286.0707 -244.579)">
			<stop  offset="0" style="stop-color:#FDA3A2"/>
			<stop  offset="1" style="stop-color:#E05865"/>
		</linearGradient>
		<path class="st24" d="M911.9,643.3c0,0-47.3,30-39.1,81c8.2,51,51,96.8,88.5,69.5c37.5-27.3,35.2-112.2,15.4-135.1
			C957,635.7,911.9,643.3,911.9,643.3z"/>
		<path class="st23" d="M1144.1,1246.8c-0.6,3-1.2,6-1.8,9c16.3,4.4,47.5,11.3,69.6,7.3c7.3-18.8,14.5-37.7,20.9-55.3l-78.7,3.8
			C1150.4,1221.5,1146.9,1233.1,1144.1,1246.8z"/>
		<g>
			<linearGradient id="SVGID_11_" gradientUnits="userSpaceOnUse" x1="847.0046" y1="1141.2294" x2="785.8635" y2="1125.9818">
				<stop  offset="0" style="stop-color:#9E6E6E"/>
				<stop  offset="1" style="stop-color:#7F5352"/>
			</linearGradient>
			<polygon class="st25" points="816.4,1133.6 816.4,1133.6 816.4,1133.6 			"/>
			<linearGradient id="SVGID_12_" gradientUnits="userSpaceOnUse" x1="1205.7123" y1="1188.3521" x2="893.4208" y2="1110.4719">
				<stop  offset="0" style="stop-color:#9E6E6E"/>
				<stop  offset="1" style="stop-color:#7F5352"/>
			</linearGradient>
			<path class="st26" d="M1225.3,1228c17-45.2,30.7-86,30.9-103.8c0.6-46.3-22-46.3-61.3-46.3c-39.3,0-218.6,14.5-230.2,10.4
				c-3.2-1.1-6.3-4.7-9.1-10.2c0,0,0,0,0,0c-27.5,19.2-75.4,49.9-139.3,55.4c1.1,15.3,4.6,32,14,49.6c22.8,42.8,91,51.5,123.4,41.1
				c32.4-10.4,219.8-71.7,222.7-64.2c2.4,6.1-12.6,21.5-24.8,58.5C1167.4,1224.9,1196.9,1234,1225.3,1228z"/>
		</g>
		<path class="st23" d="M856,1127.4c-3.4,27.8,23.8,47.1,48.5,49.9c16.2,1.8,32.5-1.4,48.4-4.5c17.2-3.4,34.5-6.6,51.8-9.8
			c34.6-6.3,69.2-12.1,103.9-17.5c16.6-2.6,33.2-5,49.8-7.4c8.3-1.2,16.6-2.3,25-3.5c4.7-0.6,17.1-4.4,21.4-0.5
			c3.1,2.8-0.3,9.3-1.4,12.4c-1.6,4.3-3.1,8.5-4.7,12.8c-3.4,9.2-6.8,18.4-10.2,27.7c-6.8,18.4-13.6,36.9-20.4,55.3
			c-2.6,7,8.6,10,11.2,3.1c12.2-32.9,25-65.6,36.5-98.7c2.1-6.2,3.2-12.9-0.8-18.6c-3.5-5-9.7-6.6-15.5-6.7
			c-7.1-0.1-14.3,1.5-21.3,2.5c-9.1,1.2-18.2,2.5-27.2,3.8c-69.4,9.9-138.4,22.2-207.3,35.3c-17.4,3.3-37.6,6.6-54.3-1.4
			c-13.1-6.3-23.5-18.9-21.6-34C868.4,1120.1,856.9,1120.1,856,1127.4L856,1127.4z"/>
		<linearGradient id="SVGID_13_" gradientUnits="userSpaceOnUse" x1="877.798" y1="915.2222" x2="881.4375" y2="1085.3134">
			<stop  offset="0" style="stop-color:#F8C7CD"/>
			<stop  offset="1" style="stop-color:#EFA3B0"/>
		</linearGradient>
		<path class="st27" d="M950.9,1005.1c9.3-42.2,22-41.6,18.5-87.3s-1.2-66.5-1.2-66.5s-35.4-6.6-43.1-23.2
			c-32,5.1-55.8-9.2-55.8-9.2c-8.7,10.4-81,34.1-81,34.1s-5.8,90.8,1.6,130l0,0l0,0c0.3,1.5,0.6,2.9,0.9,4.2
			c3.1,13,6.6,25.1,10,36.4c3.1,16.2,5.5,35.5,4.3,54.3c-2,31.8,0.6,68.2,5.8,83.3c0,0,48-7.5,93.1-31.2s58.6-50.8,58.6-50.8l-7.4-2
			C948.3,1062.4,944.3,1035.1,950.9,1005.1z"/>
		<g>
			<linearGradient id="SVGID_14_" gradientUnits="userSpaceOnUse" x1="972.7855" y1="946.2031" x2="929.9993" y2="1041.7191">
				<stop  offset="0" style="stop-color:#92EAE7"/>
				<stop  offset="1" style="stop-color:#66D3D3"/>
			</linearGradient>
			<polygon class="st28" points="923.3,916.8 871.9,1046.2 974,1083.4 1024.3,953.1 			"/>
			<linearGradient id="SVGID_15_" gradientUnits="userSpaceOnUse" x1="1057.5958" y1="974.3315" x2="1029.5728" y2="1054.705">
				<stop  offset="0" style="stop-color:#92EAE7"/>
				<stop  offset="1" style="stop-color:#66D3D3"/>
			</linearGradient>
			<polygon class="st29" points="1039.8,951.2 1106.9,918.4 1050.7,1054.8 990.4,1081.7 			"/>
			<polygon class="st30" points="1024.3,953.1 1039.8,951.2 990.4,1081.7 974,1083.4 			"/>
			<polygon class="st3" points="923.3,916.8 935.7,911.4 1028.4,943.8 1097.8,913.7 1106.9,918.4 1039.8,951.2 1024.3,953.1 			"/>
		</g>
		<linearGradient id="SVGID_16_" gradientUnits="userSpaceOnUse" x1="1040.8606" y1="979.9468" x2="1102.3975" y2="979.9468">
			<stop  offset="0" style="stop-color:#FDA3A2"/>
			<stop  offset="1" style="stop-color:#E05865"/>
		</linearGradient>
		<path class="st31" d="M1093.1,953.1c0,0,17.2,20,4.7,35.4c-12.5,15.4-46.5,20-49.2,17.7c-2.7-2.3-18.3-43.6,4.3-47.9
			C1075.5,954,1093.1,953.1,1093.1,953.1z"/>
		<linearGradient id="SVGID_17_" gradientUnits="userSpaceOnUse" x1="657.6681" y1="1016.1326" x2="936.6199" y2="1016.1326">
			<stop  offset="0" style="stop-color:#FDA3A2"/>
			<stop  offset="1" style="stop-color:#E05865"/>
		</linearGradient>
		<path class="st32" d="M923.7,969.2c-20.8,0.3-39.9,3.2-59,12.7c-20.8,10.4-36,11.2-82.9,13.5c-29.6,1.5-52.8,11.4-52.8,11.4
			l10.7-12.1l-72.5,3.5c-2,3.6-3.6,6.6-4.6,8.6c-9.9,20.1-6.3,52.7,20.8,55.5c73.8,7.7,167.9-50.3,188.7-49.7
			c20.8,0.6,41.6,11.6,51.5,4C933.6,1009.1,947,968.9,923.7,969.2z"/>
		<linearGradient id="SVGID_18_" gradientUnits="userSpaceOnUse" x1="737.2505" y1="935.7084" x2="767.9562" y2="1068.8129">
			<stop  offset="0" style="stop-color:#F8C7CD"/>
			<stop  offset="1" style="stop-color:#EFA3B0"/>
		</linearGradient>
		<path class="st33" d="M791.3,936.3l42.8-26L788.4,853c0,0-17.3,6.4-40.5,26c-23.1,19.7-75.9,108.9-85.2,127.8
			c-9.9,20.1-7.2,50.8,19.5,56.2c20.3,4.2,53.4,8.8,77.9,2.3c0.9,2.6,1.7,6,3.9,7.9c3.7,3.4,9.1,1.2,11-3c1.5-3.2,0.9-6.7,0.2-10.1
			c-1.1-5.1-2.1-10.1-2.5-15.3c-0.7-9.6-0.1-19.1,0.2-28.7c0.2-5.9,1.3-17.5-3.8-22c-4.2-3.7-8.6,0.5-10.9,4
			c-0.1,0.1-0.1,0.2-0.2,0.3c-17.3,3.4-28.9,8.4-28.9,8.4L791.3,936.3z"/>
		<path class="st34" d="M1035,786.5c-3.5-12.6-17-18.1-24.7-27.5c-3.2-9.7-1.1-19.8-0.2-30.6c1.7-22.4-2.9-46-15.6-64.8
			c-9.1-13.5-22.2-24-37.2-29.5c-12.3-3.9-21.9-3.9-21.9-3.9c-20.5-1-41,5.3-57.6,17.4c-18.9,13.7-29.6,32.5-35.9,54.6
			c-3.2,11.4-5.7,23.2-10.4,34.2c-2,2.7-4.2,5.3-6.6,7.6c-7.3,7.2-16.9,12.1-23.1,20.3c-5.7,7.5-7.6,17.3-6.2,26.5
			c0.8,5.5,2.7,10.7,5.2,15.6c1.8,3.5,6.3,8.5,7.7,13.2c-1.4,3.9-4.6,6.7-8.9,9.4c-7.6,4.9-12.2,11.2-11.4,19.1
			c-3.8,14.4,13.9,26.4,24.5,36c0,0.3,0.1,0.6,0.1,0.9c0,1.7,1,2.7,2.3,3.2c0.9,0.4,1.9,0.4,3-0.2c7-3.7,6.5-12.6,3.2-18.7
			c-2.6-4.9-8.3-10-5.1-16c2.6-4.8,8.4-7.1,12.8-9.9c6.7-4.4,12.5-11,10.3-19.6c-2.1-8.1-14.2-17-6.7-25.3c0.3-0.3,0.5-0.6,0.8-0.8
			c0.4,0.1,0.9,0,1.2-0.5c0.2-0.4,0.5-0.8,0.7-1.2c3.1-2.5,6.7-4.2,10.1-6.3c1.4-0.5,2.9-1,4.3-1.7c4.2-1.9,7.9-4.9,10.7-8.7
			c6.6-8.8,5.3-18.5,5.2-28.8c0-7.8,2.3-15.4,6.6-21.7c11.3-8,26.5-12.3,38.3-16.8c14-5.4,29.4-14.6,36.3-28.1
			c6.2,13.2,24,17.3,33.3,28.4c8.9,10.6,3,28.8,7.8,41c1.7,8.4,7.1,15.2,11.1,22.7c2.3,4.2,4.2,9,4,13.9c-0.2,5.3-3.2,8.5-7.1,11.7
			c-5.3,4.4-10.8,9-9.9,16.6c0.6,4.8,3.4,8.5,6,12.3c0.8,6.6-1.1,13.1-5.6,18.2c-3.4,3.8-7.7,6.8-10.4,11.3
			c-3.6,6.2-3.7,13.6-0.9,20c0.2,2.5,0.9,5.1,2.3,7.3l0.6,1c0.7-1.7,2.1-3.2,3.1-4.1c1-0.9,1.9-1.8,2.8-2.8c0.2-0.2,0.5-0.4,0.7-0.7
			c8.6-4.7,21-1.9,29.2-8.2c5.1-3.9,8-9.8,8.5-16c0.5-1.4,0.8-2.9,1-4.5c1.5-12.5-9.7-21.3-10.3-33.2c0-0.6,0-1.1,0-1.6
			c4.7-4.7,13.1-7.8,17.1-12.1C1034.5,800.3,1036.8,793.3,1035,786.5z M790.2,855.4c2.6,5.4,6.6,9.9,10.9,14
			c3.2,3,7.8,6.5,10.1,10.6C802.8,873,792.1,864.8,790.2,855.4z M809.9,766.4c-6.5,8.3-10,17.5-7.2,28.1c1.6,5.8,4.6,11.2,5.9,17.2
			c0.3,1.5,0.4,2.8,0.4,4c-1.8-3.4-4.4-6.6-6-9.5c-7.1-13-8.7-29.9,1.4-41.8c6.4-7.5,15.1-12.4,22.2-19.2
			C821.8,752.8,815.5,759.2,809.9,766.4z M863.9,741.6c-2.7,12.3,2.5,25.3-5.6,36.2c-1.6,2.2-3.4,3.9-5.4,5.2c0.7-1,1.3-2.1,1.9-3.3
			c4.1-9.6-0.3-20.1,2.1-30c1.6-6.9,5.2-12.4,10-16.8C865.6,735.7,864.6,738.6,863.9,741.6z M947.8,681.2c0-0.1,0.1-0.2,0.1-0.3
			c6.2,8.3,16.6,13.8,25.4,19.4c8.5,5.4,16.8,12.2,16.9,23.1c0.1,5.6-1.4,11-2.3,16.4c0-2.1,0-4.2,0-6.2c0-7.5-0.6-14.9-5.2-21.2
			C973.6,700,952.9,696.2,947.8,681.2z M976.2,864.9c2.2-6.3,7.4-9.7,11.6-14.4c4.1-4.6,6.2-10.1,6.4-16c1.1,2,2,4,2.3,6.3
			c0.8,5.6-0.7,11.5-4.3,15.8c-3.5,4.1-8.5,6.5-12.3,10.2c0,0-0.1,0.1-0.1,0.1c-2.1,2-3.5,4.5-4.2,7.1
			C974.9,871,975.1,867.9,976.2,864.9z M1017.9,863.3c-3.2,6.5-10.3,10.9-18.4,12c-3,0.4-6,0.7-8.9,1.3
			C999.5,871.9,1011.3,870.1,1017.9,863.3z M1028.2,803.7c-3.8,4.2-9.2,6-13.7,9.3c-0.1,0.1-0.3,0.2-0.4,0.3c1.6-2.8,4.4-4.8,7-7.3
			c3.3-3.2,5.5-7.1,5.8-11.8c0.7-11-6.8-19.1-12.6-27.5c-0.5-0.7-0.9-1.4-1.3-2.1c7.6,6.8,17.2,12.3,20,22.5
			C1034.4,793.1,1032.3,799.3,1028.2,803.7z"/>
		<g>
			<circle class="st3" cx="855.7" cy="983.8" r="6.2"/>
			<circle class="st3" cx="816.4" cy="916.8" r="6.2"/>
			<path class="st3" d="M813.2,1053.6c0-3.4-2.8-6.2-6.2-6.2c-0.9,0-1.8,0.2-2.5,0.5c0.4,3.8,0.7,7.7,0.8,11.6
				c0.5,0.2,1.1,0.3,1.7,0.3C810.4,1059.8,813.2,1057,813.2,1053.6z"/>
			<circle class="st3" cx="816.4" cy="960.3" r="6.2"/>
			<path class="st3" d="M813.2,1112.4c0-3.4-2.8-6.2-6.2-6.2c-0.9,0-1.7,0.2-2.4,0.5c0.1,3.9,0.2,7.8,0.4,11.6
				c0.7,0.2,1.3,0.4,2.1,0.4C810.4,1118.6,813.2,1115.8,813.2,1112.4z"/>
			<circle class="st3" cx="925.2" cy="1068.7" r="6.2"/>
			<circle class="st3" cx="898.4" cy="846.8" r="6.2"/>
			<path class="st3" d="M818.1,1159.9c0.8-1,1.3-2.3,1.3-3.8c0-3.4-2.8-6.2-6.2-6.2c-1.9,0-3.5,0.8-4.6,2.1c0.7,3.6,1.5,6.7,2.4,9.2
				C811,1161.2,813.6,1160.8,818.1,1159.9z"/>
			<circle class="st3" cx="868.1" cy="1084.2" r="6.2"/>
			<circle class="st3" cx="886" cy="932.2" r="6.2"/>
			<path class="st3" d="M950.4,853c2.9,0,5.4-2,6-4.8c-3.6-1.1-7.6-2.5-11.5-4.3c-0.4,0.9-0.7,1.8-0.7,2.8
				C944.2,850.2,946.9,853,950.4,853z"/>
			<circle class="st3" cx="851.9" cy="1127.1" r="6.2"/>
			<circle class="st3" cx="892.2" cy="882.2" r="6.2"/>
			<circle class="st3" cx="851.9" cy="853" r="6.2"/>
			<circle class="st3" cx="849.4" cy="1047.4" r="6.2"/>
			<circle class="st3" cx="855.7" cy="894.7" r="6.2"/>
			<circle class="st3" cx="683.6" cy="1000.6" r="6.2"/>
			<circle class="st3" cx="709.2" cy="1037.5" r="6.2"/>
			<path class="st3" d="M696,957.4c3.4,0,6.2-2.8,6.2-6.2c0-2.5-1.5-4.6-3.6-5.6c-2.2,3.5-4.4,7-6.5,10.4
				C693.2,956.9,694.5,957.4,696,957.4z"/>
			<path class="st3" d="M720.5,1062.5c-3.1,0-5.7,2.3-6.1,5.3c4.1,0.3,8.2,0.6,12.3,0.7C726.5,1065.1,723.8,1062.5,720.5,1062.5z"/>
			<path class="st3" d="M732.9,901c3.4,0,6.2-2.8,6.2-6.2c0-1.7-0.7-3.3-1.9-4.4c-2.4,2.9-5,6.2-7.6,9.7
				C730.5,900.6,731.7,901,732.9,901z"/>
			<circle class="st3" cx="767" cy="905.2" r="6.2"/>
			<circle class="st3" cx="750.8" cy="1034.9" r="6.2"/>
			<circle class="st3" cx="739.1" cy="945.2" r="6.2"/>
			<path class="st3" d="M931.4,1106.3c-3.4,0-6.2,2.8-6.2,6.2c0,1.4,0.5,2.7,1.3,3.8c3.6-2.5,6.9-5.1,9.8-7.5
				C935.2,1107.3,933.4,1106.3,931.4,1106.3z"/>
			<path class="st3" d="M760.8,960.3c-3.4,0-6.2,2.8-6.2,6.2c0,2.9,2,5.3,4.7,6l7.3-8.3C765.7,962,763.4,960.3,760.8,960.3z"/>
			<circle class="st3" cx="996.6" cy="905.2" r="6.2"/>
			<path class="st3" d="M739.1,983.8c-3.4,0-6.2,2.8-6.2,6.2c0,3.2,2.4,5.8,5.5,6.1l6.7-7.6C744.5,985.9,742,983.8,739.1,983.8z"/>
			<circle class="st3" cx="1033.7" cy="932.2" r="6.2"/>
			<circle class="st3" cx="948.1" cy="892.5" r="6.2"/>
			<path class="st3" d="M669.8,1043.7c0-3.4-2.8-6.2-6.2-6.2c-2.1,0-3.9,1-5,2.6c0.9,3.5,2.2,6.8,4,9.8c0.3,0.1,0.7,0.1,1,0.1
				C667.1,1049.9,669.8,1047.1,669.8,1043.7z"/>
			<path class="st3" d="M1021.3,894.7c0,3.4,2.8,6.2,6.2,6.2c0.9,0,1.7-0.2,2.5-0.5c-2.7-3.1-5.3-6.2-7.7-9
				C1021.6,892.4,1021.3,893.5,1021.3,894.7z"/>
			<path class="st3" d="M776.8,868c3.4,0,6.2-2.8,6.2-6.2c0-2.1-1-3.9-2.6-5.1c-2.7,1.4-6,3.2-9.8,5.6
				C771,865.5,773.6,868,776.8,868z"/>
		</g>
		<path class="st3" d="M1195,1453.3c-24.3-8.7-35.9-17.9-33.5-49.7c0.6-8.6,7.8-29.6,18-56.6c-16,1.2-34.2-4-46.5-8.5
			c-1.9,28-3.1,52.7-5.6,68.6c-5.2,32.4-28.3,58.4-20.2,71.1c8.1,12.7,148.6,8.1,146.3,0C1251.1,1470.1,1219.2,1462,1195,1453.3z"/>
	</g>
	<g>
		<linearGradient id="SVGID_19_" gradientUnits="userSpaceOnUse" x1="282.2213" y1="1223.4988" x2="282.6445" y2="1174.9456">
			<stop  offset="0" style="stop-color:#FFFDFD"/>
			<stop  offset="1" style="stop-color:#FEE9E6"/>
		</linearGradient>
		<rect x="261.8" y="1161.2" class="st35" width="38.6" height="369.5"/>
		<linearGradient id="SVGID_20_" gradientUnits="userSpaceOnUse" x1="528.3951" y1="1224.7439" x2="528.3951" y2="1186.1124">
			<stop  offset="0" style="stop-color:#FFFDFD"/>
			<stop  offset="1" style="stop-color:#FEE9E6"/>
		</linearGradient>
		<rect x="509.1" y="1161.2" class="st36" width="38.6" height="369.5"/>
		<linearGradient id="SVGID_21_" gradientUnits="userSpaceOnUse" x1="404.7746" y1="1187.4464" x2="404.7746" y2="1153.6322">
			<stop  offset="0" style="stop-color:#FFFDFD"/>
			<stop  offset="1" style="stop-color:#FEE9E6"/>
		</linearGradient>
		<rect x="300.5" y="1163.1" class="st37" width="208.6" height="89.4"/>
		<rect x="294.6" y="1405.8" class="st3" width="219.2" height="29.1"/>
		<circle class="st38" cx="404.8" cy="1207.8" r="13.5"/>
		<path class="st3" d="M562.5,1163.1H247.1c-10,0-18.1-8.1-18.1-18.1v-3.7c0-10,8.1-18.1,18.1-18.1h315.4c10,0,18.1,8.1,18.1,18.1
			v3.7C580.5,1155,572.4,1163.1,562.5,1163.1z"/>
	</g>
	<g>
		<linearGradient id="SVGID_22_" gradientUnits="userSpaceOnUse" x1="518.4837" y1="1068.6801" x2="516.8962" y2="1114.5892">
			<stop  offset="0" style="stop-color:#EF7545"/>
			<stop  offset="0.5986" style="stop-color:#DE5B39"/>
			<stop  offset="1" style="stop-color:#D64F34"/>
		</linearGradient>
		<path class="st39" d="M510.5,1047.3c5.5-4.3,12.1-1.6,15.7,3.8c3.7,5.7,4.4,13.6,3.6,20.2c-1.6,12.4-14.1,25.7-26.7,16.6
			c-5.8-4.2-11.3,5.4-5.6,9.5c8.1,5.9,19.2,5.5,27.7,0.6c9.6-5.5,14.4-16.2,15.5-26.8c1.1-10.3-1.2-22-8.4-29.9
			c-6.8-7.5-19.2-9.9-27.5-3.5C499.4,1042,504.9,1051.6,510.5,1047.3L510.5,1047.3z"/>
		<linearGradient id="SVGID_23_" gradientUnits="userSpaceOnUse" x1="476.0217" y1="1072.2032" x2="476.0217" y2="1124.0367">
			<stop  offset="0" style="stop-color:#EF7545"/>
			<stop  offset="0.5986" style="stop-color:#DE5B39"/>
			<stop  offset="1" style="stop-color:#D64F34"/>
		</linearGradient>
		<path class="st40" d="M476,1021.1h-33c-4.1,0-7.4,3.2-7.2,6.9l6,83.3c0.5,6.7,6.7,11.9,14.1,11.9h20h20c7.5,0,13.6-5.2,14.1-11.9
			l6-83.3c0.3-3.7-3-6.9-7.2-6.9H476z"/>
		<path class="st3" d="M476.7,975c-0.2,4.8-4.7,8.5-5,13.6c-0.1,2.6,0.6,5,1.9,7.2c0.9,1.7,5.9,7.9,2.3,9.1
			c-5.1,1.7-2.9,9.8,2.2,8.1c8.5-2.8,8.4-12,4.4-18.7c-1-1.6-2.5-3.3-2.5-5.2c0-1.5,1.1-3.1,1.8-4.4c1.7-3.2,3.1-6.1,3.3-9.7
			C485.3,969.6,476.9,969.6,476.7,975L476.7,975z"/>
		<path class="st3" d="M457.3,982.9c-2.2,2.4-3.1,5.2-2.7,8.5c0.3,2,4.3,9.3,2.2,10.4c-4.8,2.5-0.6,9.7,4.2,7.2
			c3.2-1.7,4.9-4.9,4.9-8.5c0-2-0.7-3.8-1.4-5.7c-0.6-1.5-2.6-4.5-1.3-6C466.8,984.9,460.9,978.9,457.3,982.9L457.3,982.9z"/>
		<path class="st3" d="M490.8,986.5c-0.3,3.2,0.1,6.4,1,9.5c0.5,1.8,2.9,5.7,1.2,7c-4.3,3.3,1.7,9.2,5.9,5.9
			c7.2-5.6-0.5-15.4,0.2-22.4C499.7,981.2,491.3,981.2,490.8,986.5L490.8,986.5z"/>
	</g>
	<g>
		<path class="st41" d="M402.6,1123.3H267.3c-3,0-5.5-2.5-5.5-5.5v-17.7c0-3,2.5-5.5,5.5-5.5h135.2c3,0,5.5,2.5,5.5,5.5v17.7
			C408.1,1120.8,405.6,1123.3,402.6,1123.3z"/>
		<path class="st34" d="M385.8,1094.6H250.6c-3,0-5.5-2.5-5.5-5.5v-17.7c0-3,2.5-5.5,5.5-5.5h135.2c3,0,5.5,2.5,5.5,5.5v17.7
			C391.3,1092.1,388.8,1094.6,385.8,1094.6z"/>
		<rect x="283.2" y="1094.6" class="st42" width="11" height="28.7"/>
		<rect x="265.6" y="1065.9" class="st43" width="5" height="28.7"/>
		<rect x="274.2" y="1065.9" class="st43" width="5" height="28.7"/>
		<rect x="282.9" y="1065.9" class="st43" width="5" height="28.7"/>
	</g>
	<g>
		<g>
			<path class="st44" d="M1555.6,1157.1c13.7,53.1,8.7,110.3-14.3,160.1c-3.2,7,7.2,13.1,10.4,6.1c24.5-52.8,30.1-113,15.5-169.4
				C1565.3,1146.3,1553.7,1149.5,1555.6,1157.1L1555.6,1157.1z"/>
			<path class="st44" d="M1608.5,1131.8c-34,61-52.2,130.1-52.7,199.9c-0.1,7.8,12,7.8,12.1,0c0.5-67.7,18.1-134.6,51.1-193.8
				C1622.7,1131.1,1612.3,1125,1608.5,1131.8L1608.5,1131.8z"/>
			<path class="st44" d="M1516.7,1043.5c4.1,84.2,8.3,170.3-13.7,252.6c-5.9,22.2-13.7,43.8-23.8,64.5c-3.4,7,7,13.1,10.4,6.1
				c37.2-76.5,43.9-162.6,42.1-246.5c-0.5-25.6-1.8-51.1-3-76.7C1528.4,1035.8,1516.3,1035.8,1516.7,1043.5L1516.7,1043.5z"/>
			<g>
				
					<linearGradient id="SVGID_24_" gradientUnits="userSpaceOnUse" x1="1487.8442" y1="1100.9716" x2="1487.8442" y2="879.6445" gradientTransform="matrix(0.9377 -0.3474 0.3474 0.9377 -248.864 579.0121)">
					<stop  offset="0" style="stop-color:#2F254C"/>
					<stop  offset="1" style="stop-color:#4A4284"/>
				</linearGradient>
				<path class="st45" d="M1577.6,1030.3c-17.3,3.5-26.3-2-4.3-11.7c13.3-5.9,20.3-25.7,23.8-40.4c-5.2-7.9-11.3-15.1-17.9-22
					c-6.9,23.3-27.6,49.8-33.2,49.6c-7-0.4-6.3-14.3,1.3-36.1c4-11.5,2.2-29.8-0.4-44.6c-10.7-9.9-22-19.4-34.5-26.8
					c3.3,10.8,5.5,24.5-0.9,32.2c-9.7,11.7-14.6-22.4-20.2-41.2c-5.9-1.5-11.9-2.5-18-2.9c-12.9-1-25.7,0.8-37.1,7.1
					c-9.5,5.2-16.7,12.3-20.9,22.3c-3,7.1-4.8,14.6-6.2,22.1c6.8,10.2,16,22.4,23.7,27.5c14.3,9.4,25.4,23.2,17.9,22.9
					c-5.5-0.2-29.4-13.1-44.8-26.9c-0.6,5.3-1.1,10.5-1.7,15.8c-0.8,6.8-1.7,13.6-2.4,20.4c18.9,15.3,48,37.6,59.7,39.7
					c17.9,3.2,7.3,19.8,7.3,19.8c-26.5,12.9-50.5,6.5-64.8-0.1c0,0.1,0,0.2,0,0.2c2.1,11.8,4.9,23.6,10.3,34.4
					c4.7,9.5,11.3,18.4,20.6,23.8c10.3,5.9,22.8,5.9,33.7,1.7c25.5-9.9,39.6-36.6,65.1-46.3c0.8-0.3,1.7-0.6,2.5-0.9
					c2.5,0,5,0.4,7.5,0.9c5.9,1.2,11.7,3.2,17.7,3.8c11.7,1.2,23.4-3.2,32.2-10.8c18-15.7,21-40.8,14.3-62.7
					C1599.8,1013.1,1587.8,1028.2,1577.6,1030.3z"/>
				<path class="st46" d="M1523,1075.9c2.9-1.8,6-3.4,9.2-4.7c-7.3-59.7-31.1-117.3-68.1-164.8c-4.8-6.2-9.9-12.2-15.2-18.1
					c-3.3,0.9-6.6,2.1-9.8,3.6c40.2,43.5,68.2,98.2,79.7,156.3C1520.6,1057.4,1522,1066.6,1523,1075.9z"/>
			</g>
			<g>
				
					<linearGradient id="SVGID_25_" gradientUnits="userSpaceOnUse" x1="1682.3672" y1="1202.6764" x2="1682.3672" y2="981.3492" gradientTransform="matrix(0.7552 0.6555 -0.6555 0.7552 1106.7781 -855.2634)">
					<stop  offset="0" style="stop-color:#2F254C"/>
					<stop  offset="1" style="stop-color:#4A4284"/>
				</linearGradient>
				<path class="st47" d="M1668.6,1167.8c-11.4-13.5-10.8-24,8.2-9.4c11.5,8.8,32.3,5.5,46.9,1.4c4.4-8.3,7.8-17.2,10.7-26.3
					c-23.7,5.1-57-0.3-59.4-5.3c-3.1-6.3,9.6-12.4,32.3-16.2c12-2,27.2-12.4,39-21.8c3.5-14.2,6.4-28.6,6.9-43.1
					c-7.9,8.1-18.8,16.6-28.7,14.7c-14.9-2.9,12.7-23.5,26.5-37.5c-1.5-5.9-3.6-11.7-6.1-17.2c-5.3-11.8-13.1-22.1-24-29.1
					c-9.1-5.8-18.8-8.8-29.6-7.7c-7.6,0.8-15.1,2.8-22.4,5.2c-5.6,10.9-11.9,24.8-12.7,34c-1.4,17-8.1,33.4-11.5,26.7
					c-2.5-4.9-2.7-32.1,2.1-52.3c-4.9,2-9.8,4.1-14.7,6.1c-6.4,2.6-12.7,5-19,7.7c-4.3,23.9-9.9,60.2-6.1,71.4
					c5.8,17.2-13.9,16-13.9,16c-24-17-29.9-41.2-31-56.9c-0.1,0-0.1,0.1-0.2,0.1c-9.3,7.5-18.3,15.7-25.2,25.5
					c-6.1,8.7-10.7,18.7-10.9,29.5c-0.2,11.9,5.8,22.8,14.7,30.4c20.9,17.6,51.1,17.2,71.8,34.9c0.7,0.6,1.3,1.2,2,1.8
					c1.2,2.2,2,4.6,2.8,7c1.8,5.8,2.8,11.8,5.2,17.3c4.6,10.8,14,19,24.9,23c22.4,8.3,45.9-1.2,61.8-17.5
					C1694.3,1179,1675.2,1175.7,1668.6,1167.8z"/>
				<path class="st46" d="M1602.3,1141.8c3,1.7,5.8,3.6,8.6,5.8c48.9-35.1,87.9-83.6,111.8-138.9c3.1-7.2,6-14.6,8.5-22
					c-2.4-2.5-5-4.8-7.9-6.9c-18.8,56.1-53.4,106.9-98.8,145C1617.4,1130.8,1610,1136.5,1602.3,1141.8z"/>
			</g>
		</g>
		<g>
			
				<linearGradient id="SVGID_26_" gradientUnits="userSpaceOnUse" x1="1651.3677" y1="1268.8867" x2="1651.3677" y2="1103.1768" gradientTransform="matrix(0.7416 -0.6709 0.6709 0.7416 -499.658 1351.8745)">
				<stop  offset="0" style="stop-color:#2F254C"/>
				<stop  offset="1" style="stop-color:#4A4284"/>
			</linearGradient>
			<path class="st48" d="M1592.3,1126.7c-11.1,7.2-18.8,5.9-6.3-6.9c7.6-7.8,7-23.5,5.3-34.7c-5.8-4-12.1-7.3-18.6-10.3
				c1.7,18.1-5.3,42.3-9.3,43.7c-5,1.7-8.4-8.2-9.1-25.5c-0.4-9.1-6.7-21.4-12.7-30.9c-10.2-3.9-20.7-7.3-31.4-9
				c5.3,6.6,10.7,15.5,8.3,22.6c-3.5,10.8-16.4-11.5-25.5-23c-4.5,0.6-9,1.6-13.3,3c-9.2,2.9-17.6,7.7-23.8,15.2
				c-5.1,6.2-8.2,13.2-8.4,21.3c-0.1,5.7,0.7,11.5,1.8,17.1c7.6,5.2,17.4,11.1,24.1,12.5c12.5,2.6,24.1,9,18.8,11
				c-3.9,1.4-24.1-0.9-38.7-6.3c1.1,3.8,2.2,7.6,3.2,11.5c1.3,5,2.6,9.9,4,14.8c17.4,5.4,43.8,12.8,52.5,11
				c13.3-2.7,10.6,11.7,10.6,11.7c-14.8,16.3-33.3,18.6-45.1,17.9c0,0,0.1,0.1,0.1,0.1c4.7,7.6,10,15,16.7,21
				c5.9,5.3,12.9,9.6,21,10.8c8.8,1.3,17.5-2.2,23.9-8.2c15-14,17.4-36.5,32.4-50.3c0.5-0.5,1-0.9,1.5-1.3c1.7-0.7,3.6-1.1,5.5-1.4
				c4.4-0.8,9-1,13.4-2.3c8.5-2.4,15.4-8.7,19.4-16.5c8.2-15.9,3.3-34.2-7.5-47.5C1602.9,1108.6,1598.8,1122.5,1592.3,1126.7z"/>
			<path class="st46" d="M1567,1173.6c1.5-2.1,3.2-4,5.1-5.8c-21.7-39.5-54.3-72.9-93.2-95.6c-5.1-3-10.3-5.7-15.6-8.3
				c-2.1,1.6-4,3.3-5.8,5.2c40,19,74.7,49.3,98.9,86.5C1560.2,1161.4,1563.7,1167.5,1567,1173.6z"/>
		</g>
		<path class="st3" d="M1542.4,1299.4h-88.5c-5.1,0-9,5.7-8.3,12.2l15.9,141.6c2,18.1,14.2,31.5,28.6,31.5h52.3h52.3
			c14.4,0,26.6-13.4,28.6-31.5l15.9-141.6c0.7-6.4-3.2-12.2-8.3-12.2H1542.4z"/>
	</g>
	<g>
		<rect x="1031.5" y="332.8" class="st2" width="272" height="297.5"/>
		<rect x="1031.5" y="326.5" class="st3" width="272" height="297.5"/>
		<rect x="1046" y="342.4" class="st5" width="243.1" height="265.8"/>
		<path class="st4" d="M1250.3,475.4c9.3-6.5,19.5-13.9,18.2-26.7c-1.4-14.4-14.4-23.7-27.3-27.4c-13.5-3.8-31.4-3-41.3-14.7
			c-9-10.5,1.4-26.4-9.3-36.6c-10.1-9.5-25.5-2.8-31.3,7.9c-7.4,13.7-3.7,30.4-7.1,45.2c-1.9,8.1-4.9,16-9,23.2
			c-2.5,4.4-7.7,14.3-12.8,7.5c-3.4-4.5-5.4-9.9-10.3-13.1c-5.2-3.4-12-3.7-17.7-1.6c-13.1,4.7-17.7,19.2-16.9,32
			c0.9,13.8,6.7,26.3,10.2,39.4c-1.9,8.4-5.5,16.1-13,22c-10.2,7.9-24,16.9-21.1,31.9c2.5,12.9,16.6,20.1,28.8,19.1
			c16.1-1.3,31.1-11.6,45.1-18.8c8.2-4.2,16.5-8.5,24.7-12.7c3.6-1.8,7.2-4.2,11-5.6c3.8-1.4,4.8,1.4,6.3,4.5
			c5.7,12.1,13.5,22.1,26.1,27.6c11.6,5.1,25,5.4,36.3-0.9c10.8-6,18.9-17.1,20.6-29.4c2-14.6-6.7-26-14.1-37.6
			c-4.1-6.3-8.5-14.5-6.9-22.3C1240.5,482.4,1245.5,478.7,1250.3,475.4z"/>
		<circle class="st4" cx="1100.4" cy="393.4" r="22.5"/>
	</g>
	<g>
		<rect x="1379.4" y="622.4" class="st2" width="156.1" height="170.7"/>
		<rect x="1379.4" y="615.5" class="st3" width="156.1" height="170.7"/>
		<rect x="1393" y="630.3" class="st4" width="128.9" height="141"/>
		<circle class="st5" cx="1429.7" cy="669.6" r="13.8"/>
		<circle class="st5" cx="1459.6" cy="700.9" r="13.8"/>
		<circle class="st5" cx="1487.2" cy="733.3" r="13.8"/>
	</g>
</g>
</svg>
